<?xml version="1.0" standalone="no"?>
<!DOCTYPE svg PUBLIC "-//W3C//DTD SVG 20010904//EN"
 "http://www.w3.org/TR/2001/REC-SVG-20010904/DTD/svg10.dtd">
<svg version="1.0" xmlns="http://www.w3.org/2000/svg"
 width="512.000000pt" height="512.000000pt" viewBox="0 0 512.000000 512.000000"
 preserveAspectRatio="xMidYMid meet">
<metadata>
Created by potrace 1.11, written by Peter Selinger 2001-2013
</metadata>
<g transform="translate(0.000000,512.000000) scale(0.100000,-0.100000)"
fill="#000000" stroke="none">
<path d="M2313 4389 c-290 -24 -546 -129 -750 -306 -114 -99 -203 -242 -203
-324 0 -37 -16 -69 -35 -69 -51 0 -136 -136 -180 -285 -56 -195 -57 -538 -2
-720 35 -115 112 -276 144 -304 16 -12 51 -44 78 -70 l51 -46 18 -108 c24
-146 33 -175 56 -182 37 -12 60 11 60 60 0 55 -15 169 -41 310 l-20 110 36
164 c20 90 47 241 60 336 25 180 48 263 90 326 38 58 52 57 162 -9 54 -32 148
-82 208 -111 61 -29 117 -56 125 -60 31 -17 219 -70 300 -86 141 -28 315 -35
495 -19 88 8 171 16 185 19 14 3 41 7 61 9 82 9 217 56 364 126 124 59 171 80
177 80 10 0 38 -116 63 -264 17 -99 26 -194 27 -291 2 -78 6 -141 9 -139 6 3
18 -151 20 -260 l1 -51 9 40 c4 22 8 73 8 113 1 59 5 79 26 112 14 22 36 46
48 55 13 8 29 27 35 41 15 32 15 34 -2 34 -20 0 -65 -56 -90 -110 l-20 -45 -9
65 c-6 48 -4 79 7 120 40 151 51 236 50 390 0 140 -3 168 -32 283 -18 71 -32
142 -32 159 0 83 -69 258 -144 362 -102 143 -323 320 -499 401 -176 80 -372
128 -587 145 -141 11 -183 11 -327 -1z"/>
<path d="M2070 2874 c-30 -8 -85 -33 -122 -55 -73 -43 -171 -134 -165 -152 8
-24 38 -18 85 16 151 110 338 145 512 96 41 -11 94 -23 117 -26 36 -4 42 -2
48 17 9 29 -6 44 -68 69 -131 52 -292 66 -407 35z"/>
<path d="M3177 2787 c-83 -29 -93 -38 -77 -67 13 -24 39 -24 155 0 72 15 198
9 343 -16 96 -17 103 -17 119 -1 15 15 15 19 3 31 -27 26 -237 68 -360 72
-102 4 -123 2 -183 -19z"/>
<path d="M3454 2516 c-77 -18 -173 -66 -225 -113 -39 -35 -89 -118 -89 -145 1
-7 10 5 21 27 28 58 39 65 39 27 0 -65 45 -138 102 -168 32 -17 135 -19 175
-3 40 15 82 57 104 104 35 74 19 168 -38 228 l-27 27 29 0 c65 0 154 -67 177
-133 6 -15 15 -26 22 -24 18 7 9 57 -19 98 -48 73 -152 102 -271 75z m-106
-113 c3 -27 -1 -35 -22 -44 -31 -14 -56 2 -56 35 0 30 20 47 50 44 20 -2 26
-9 28 -35z m202 -169 c0 -19 -51 -71 -76 -79 -40 -11 -39 25 3 65 37 37 73 44
73 14z"/>
<path d="M2122 2381 c-77 -29 -138 -70 -171 -116 -34 -48 -54 -105 -45 -129 5
-12 14 -1 34 42 17 36 47 75 80 105 70 63 85 64 51 5 -54 -92 -23 -213 68
-275 29 -20 47 -23 121 -23 85 0 87 1 130 37 23 20 51 55 61 77 33 73 19 168
-33 223 -33 36 -17 36 43 0 56 -33 111 -102 128 -161 l9 -31 1 38 c2 75 -51
142 -153 195 -44 23 -65 26 -161 29 -90 3 -120 0 -163 -16z m76 -83 c7 -7 12
-21 12 -33 0 -12 -5 -26 -12 -33 -7 -7 -21 -12 -33 -12 -12 0 -26 5 -33 12 -7
7 -12 21 -12 33 0 12 5 26 12 33 7 7 21 12 33 12 12 0 26 -5 33 -12z m219
-204 c5 -16 -36 -64 -65 -75 -19 -7 -29 -6 -41 5 -13 14 -11 19 25 51 37 33
74 42 81 19z"/>
<path d="M1145 2261 c-6 -11 -9 -9 70 -50 35 -18 82 -56 112 -89 52 -56 69
-58 36 -4 -59 96 -192 184 -218 143z"/>
<path d="M3915 2221 c-11 -5 -23 -7 -27 -4 -5 2 -7 -17 -7 -44 2 -45 2 -46 8
-13 l6 35 22 -35 23 -35 0 53 c0 28 -1 52 -2 51 -2 0 -12 -4 -23 -8z"/>
<path d="M3935 2000 c-3 -5 -2 -10 4 -10 5 0 13 5 16 10 3 6 2 10 -4 10 -5 0
-13 -4 -16 -10z"/>
<path d="M1460 1910 c0 -14 12 -63 25 -109 37 -124 42 -177 20 -201 -19 -21
-7 -28 12 -9 21 21 39 2 108 -108 181 -289 315 -410 625 -567 344 -175 459
-203 700 -172 214 28 318 62 415 135 53 40 254 256 350 376 96 120 187 337
184 439 -1 19 -6 5 -14 -37 -12 -60 -30 -102 -97 -227 -25 -48 -216 -283 -259
-320 -3 -3 -40 -48 -83 -100 -122 -151 -193 -188 -439 -230 -141 -24 -261 -26
-340 -5 -56 15 -168 65 -197 90 -8 7 -64 38 -125 70 -161 84 -284 161 -412
259 -52 40 -147 150 -194 225 -21 34 -39 65 -39 69 0 4 -18 27 -40 51 -22 24
-42 52 -45 62 -4 11 -10 19 -14 19 -10 0 -60 112 -91 205 -13 39 -30 79 -37
90 -12 19 -13 18 -13 -5z"/>
<path d="M3905 1909 c-4 -6 -5 -12 -2 -15 2 -3 7 2 10 11 7 17 1 20 -8 4z"/>
<path d="M1368 1902 c-18 -4 -23 -14 -12 -25 4 -3 13 1 21 9 18 17 15 22 -9
16z"/>
<path d="M3903 1810 c0 -41 2 -58 4 -37 2 20 2 54 0 75 -2 20 -4 3 -4 -38z"/>
<path d="M3171 1696 c-1 -40 -64 -101 -120 -116 -91 -24 -182 -11 -229 33
l-24 22 4 -34 c5 -52 41 -74 125 -74 87 -1 164 25 208 69 33 33 53 88 42 116
-3 7 -6 0 -6 -16z"/>
<path d="M1430 1681 c0 -5 5 -13 10 -16 6 -3 10 -2 10 4 0 5 -4 13 -10 16 -5
3 -10 2 -10 -4z"/>
<path d="M1421 1621 c-8 -5 -11 -16 -8 -25 4 -9 1 -16 -6 -16 -7 0 -4 -5 6
-11 10 -6 30 -8 43 -5 22 6 23 8 9 22 -8 8 -15 22 -15 30 0 16 -9 18 -29 5z"/>
<path d="M3180 1399 c-110 -33 -403 -61 -570 -55 -121 4 -138 3 -105 -7 25 -7
119 -11 255 -11 197 0 224 2 327 26 61 15 131 35 155 46 56 26 23 27 -62 1z"/>
</g>
</svg>
